<svg width="30" height="30" viewBox="0 0 30 30" fill="none" xmlns="http://www.w3.org/2000/svg">
<path d="M30 8.4375V25.3125C30 26.8652 28.7402 28.125 27.1875 28.125H2.8125C1.25977 28.125 0 26.8652 0 25.3125V8.4375C0 6.88477 1.25977 5.625 2.8125 5.625H7.96875L8.68945 3.69727C9.09961 2.60156 10.1484 1.875 11.3203 1.875H18.6738C19.8457 1.875 20.8945 2.60156 21.3047 3.69727L22.0312 5.625H27.1875C28.7402 5.625 30 6.88477 30 8.4375ZM22.0312 16.875C22.0312 12.9961 18.8789 9.84375 15 9.84375C11.1211 9.84375 7.96875 12.9961 7.96875 16.875C7.96875 20.7539 11.1211 23.9062 15 23.9062C18.8789 23.9062 22.0312 20.7539 22.0312 16.875ZM20.1562 16.875C20.1562 19.7168 17.8418 22.0312 15 22.0312C12.1582 22.0312 9.84375 19.7168 9.84375 16.875C9.84375 14.0332 12.1582 11.7188 15 11.7188C17.8418 11.7188 20.1562 14.0332 20.1562 16.875Z" fill="white"/>
</svg>
