<svg width="50" height="50" viewBox="0 0 50 50" fill="none" xmlns="http://www.w3.org/2000/svg">
<path d="M49.0527 18.6328C49.4336 18.3301 50 18.6133 50 19.0918V39.0625C50 41.6504 47.9004 43.75 45.3125 43.75H4.6875C2.09961 43.75 0 41.6504 0 39.0625V19.1016C0 18.6133 0.556641 18.3398 0.947266 18.6426C3.13477 20.3418 6.03516 22.5 15.9961 29.7363C18.0566 31.2402 21.5332 34.4043 25 34.3848C28.4863 34.4141 32.0312 31.1816 34.0137 29.7363C43.9746 22.5 46.8652 20.332 49.0527 18.6328ZM25 31.25C27.2656 31.2891 30.5273 28.3984 32.168 27.207C45.127 17.8027 46.1133 16.9824 49.1016 14.6387C49.668 14.1992 50 13.5156 50 12.793V10.9375C50 8.34961 47.9004 6.25 45.3125 6.25H4.6875C2.09961 6.25 0 8.34961 0 10.9375V12.793C0 13.5156 0.332031 14.1895 0.898437 14.6387C3.88672 16.9727 4.87305 17.8027 17.832 27.207C19.4727 28.3984 22.7344 31.2891 25 31.25Z" fill="white"/>
</svg>