<svg width="27" height="30" viewBox="0 0 27 30" fill="none" xmlns="http://www.w3.org/2000/svg">
<g clip-path="url(#clip0)">
<path d="M0.27457 25.0379L6.09375 19.2188L4.16473 17.4006C3.27879 16.5147 3.90621 15 5.15906 15H11.7216C12.4982 15 13.125 15.6296 13.125 16.4062V22.9688C13.125 24.2216 11.6131 24.849 10.7272 23.9631L8.90625 22.0312L3.08707 27.8504C2.72098 28.2165 2.12736 28.2165 1.76127 27.8504L0.27457 26.3637C-0.0915235 25.9976 -0.0915235 25.404 0.27457 25.0379V25.0379ZM25.9754 4.96207L20.1562 10.7812L22.0853 12.5994C22.9712 13.4853 22.3438 15 21.0909 15H14.5284C13.7518 15 13.125 14.3704 13.125 13.5938V7.03125C13.125 5.7784 14.6369 5.15098 15.5228 6.03686L17.3438 7.96875L23.1629 2.14957C23.529 1.78348 24.1226 1.78348 24.4887 2.14957L25.9754 3.63627C26.3415 4.00236 26.3415 4.59598 25.9754 4.96207V4.96207Z" fill="white"/>
</g>
<defs>
<clipPath id="clip0">
<rect width="26.25" height="30" fill="white"/>
</clipPath>
</defs>
</svg>
