<svg width="27" height="30" viewBox="0 0 27 30" fill="none" xmlns="http://www.w3.org/2000/svg">
<g clip-path="url(#clip0)">
<path d="M12.4621 18.4754L7.03125 23.9062L8.96027 25.7244C9.84621 26.6103 9.21879 28.125 7.96594 28.125H1.40344C0.626777 28.125 0 27.4954 0 26.7188V20.1562C0 18.9034 1.51189 18.276 2.39777 19.1619L4.21875 21.0938L9.64957 15.6629C10.0157 15.2968 10.6093 15.2968 10.9754 15.6629L12.4621 17.1496C12.8282 17.5157 12.8282 18.1093 12.4621 18.4754V18.4754ZM13.7879 11.5246L19.2188 6.09375L17.2897 4.27564C16.4038 3.38971 17.0312 1.875 18.2841 1.875H24.8466C25.6232 1.875 26.25 2.50459 26.25 3.28125V9.84375C26.25 11.0966 24.7381 11.724 23.8522 10.8381L22.0312 8.90625L16.6004 14.3371C16.2343 14.7032 15.6407 14.7032 15.2746 14.3371L13.7879 12.8504C13.4218 12.4843 13.4218 11.8907 13.7879 11.5246V11.5246Z" fill="white"/>
</g>
<defs>
<clipPath id="clip0">
<rect width="26.25" height="30" fill="white"/>
</clipPath>
</defs>
</svg>
