<svg width="50" height="50" viewBox="0 0 50 50" fill="none" xmlns="http://www.w3.org/2000/svg">
<path d="M46.0937 32.8125C46.0937 31.5203 45.0421 30.4688 43.7499 30.4688H26.5625C25.2703 30.4688 24.2187 31.5203 24.2187 32.8125V36.7188H21.0937V27.3438H13.2812V23.093C16.4468 19.743 16.3976 14.4461 13.1179 11.1664L12.5656 10.6141L10.6789 12.5H5.32495C5.00151 11.593 4.14214 10.9375 3.12495 10.9375C1.83276 10.9375 0.781201 11.9891 0.781201 13.2812C0.781201 14.2984 1.43667 15.1578 2.3437 15.4812V20.8359L0.457764 22.7219L1.01011 23.2742C2.67886 24.943 4.87104 25.7773 7.06401 25.7773C7.57651 25.7773 8.08823 25.7273 8.5937 25.6359V27.3438H3.9062V49.2188H20.3124H21.0937H49.2187V36.7188H46.0937V32.8125ZM41.4062 36.7188V35.1562H44.5312V36.7188H41.4062ZM32.0312 35.1562V36.7188H30.4687V35.1562H32.0312ZM33.5937 35.1562H36.7187V36.7188H33.5937V35.1562ZM38.2812 35.1562H39.8437V36.7188H38.2812V35.1562ZM26.5625 32.0312H43.7499C44.1804 32.0312 44.5312 32.382 44.5312 32.8125V33.5938H25.7812V32.8125C25.7812 32.382 26.132 32.0312 26.5625 32.0312ZM25.7812 35.1562H28.9062V36.7188H25.7812V35.1562ZM6.92886 16.25L5.18979 14.3664C5.24136 14.2687 5.28745 14.168 5.32495 14.0625H9.11714L6.92886 16.25ZM3.12495 12.5C3.55542 12.5 3.9062 12.8508 3.9062 13.2812C3.9062 13.7117 3.55542 14.0625 3.12495 14.0625C2.69448 14.0625 2.3437 13.7117 2.3437 13.2812C2.3437 12.8508 2.69448 12.5 3.12495 12.5ZM3.9062 15.4812C3.95308 15.4648 4.00308 15.4539 4.04839 15.4344L5.82261 17.3562L3.9062 19.2727V15.4812ZM2.69839 22.6906L12.5351 12.8539C14.7289 15.5992 14.5546 19.6266 12.0132 22.1687C9.47026 24.7109 5.44292 24.8844 2.69839 22.6906V22.6906ZM10.1562 25.1969C10.6968 24.9883 11.221 24.725 11.7187 24.4031V27.3438H10.1562V25.1969ZM19.5312 28.9062V30.4688H5.4687V28.9062H19.5312ZM16.4062 47.6562H8.5937V39.8438H16.4062V47.6562ZM17.9687 47.6562V38.2812H7.0312V47.6562H5.4687V32.0312H19.5312V47.6562H17.9687ZM47.6562 47.6562H21.0937V38.2812H47.6562V47.6562ZM46.0937 39.8438H39.8437V46.0938H46.0937V39.8438ZM44.5312 44.5312H41.4062V41.4062H44.5312V44.5312ZM38.2812 39.8438H32.0312V46.0938H38.2812V39.8438ZM36.7187 44.5312H33.5937V41.4062H36.7187V44.5312ZM30.4687 46.0938V39.8438H24.2187V46.0938H30.4687ZM25.7812 41.4062H28.9062V44.5312H25.7812V41.4062ZM35.1562 0.78125C27.4023 0.78125 21.0937 7.08984 21.0937 14.8438C21.0937 22.5977 27.4023 28.9062 35.1562 28.9062C42.9101 28.9062 49.2187 22.5977 49.2187 14.8438C49.2187 7.08984 42.9101 0.78125 35.1562 0.78125ZM22.7648 16.4062H31.2499C31.6804 16.4062 32.0312 16.757 32.0312 17.1875C32.0312 17.618 31.6804 17.9688 31.2499 17.9688H28.9062C27.614 17.9688 26.5625 19.0203 26.5625 20.3125C26.5625 21.6047 27.614 22.6562 28.9062 22.6562H32.8124C33.2429 22.6562 33.5937 23.007 33.5937 23.4375C33.5937 23.868 33.2429 24.2188 32.8124 24.2188H26.9164C24.6812 22.2516 23.1539 19.507 22.7648 16.4062V16.4062ZM47.5476 16.4062C47.3351 18.0969 46.7851 19.6813 45.9648 21.0938H42.9687C42.5382 21.0938 42.1874 20.743 42.1874 20.3125C42.1874 19.0203 41.1359 17.9688 39.8437 17.9688H37.4999C37.0695 17.9688 36.7187 17.618 36.7187 17.1875C36.7187 16.757 37.0695 16.4062 37.4999 16.4062H41.4062V14.8438H37.4999C36.2078 14.8438 35.1562 15.8953 35.1562 17.1875C35.1562 18.4797 36.2078 19.5312 37.4999 19.5312H39.8437C40.2742 19.5312 40.6249 19.882 40.6249 20.3125C40.6249 21.6047 41.6765 22.6562 42.9687 22.6562H44.8984C42.6054 25.5102 39.0929 27.3438 35.1562 27.3438C32.9671 27.3438 30.9093 26.7742 29.1179 25.7812H32.8124C34.1046 25.7812 35.1562 24.7297 35.1562 23.4375C35.1562 22.1453 34.1046 21.0938 32.8124 21.0938H28.9062C28.4757 21.0938 28.125 20.743 28.125 20.3125C28.125 19.882 28.4757 19.5312 28.9062 19.5312H31.2499C32.5421 19.5312 33.5937 18.4797 33.5937 17.1875C33.5937 15.8953 32.5421 14.8438 31.2499 14.8438H22.6562C22.6562 14.3133 22.6999 13.7945 22.7648 13.2812H25.7812V11.7188H23.0679C24.4609 6.33672 29.3445 2.34375 35.1562 2.34375C38.314 2.34375 41.1937 3.53047 43.396 5.46875H34.3749C33.0828 5.46875 32.0312 6.52031 32.0312 7.8125C32.0312 9.10469 33.0828 10.1562 34.3749 10.1562H39.0624C39.4929 10.1562 39.8437 10.507 39.8437 10.9375C39.8437 11.368 39.4929 11.7188 39.0624 11.7188H30.4687V13.2812H39.0624C40.3546 13.2812 41.4062 12.2297 41.4062 10.9375C41.4062 9.64531 40.3546 8.59375 39.0624 8.59375H34.3749C33.9445 8.59375 33.5937 8.24297 33.5937 7.8125C33.5937 7.38203 33.9445 7.03125 34.3749 7.03125H44.8984C46.6195 9.17344 47.6562 11.8883 47.6562 14.8438H46.0937V16.4062H47.5476ZM27.3437 11.7188H28.9062V13.2812H27.3437V11.7188ZM42.9687 14.8438H44.5312V16.4062H42.9687V14.8438ZM7.0312 35.1562H8.5937V36.7188H7.0312V35.1562ZM10.1562 35.1562H11.7187V36.7188H10.1562V35.1562ZM16.4062 35.1562H17.9687V36.7188H16.4062V35.1562ZM13.2812 35.1562H14.8437V36.7188H13.2812V35.1562Z" fill="url(#paint0_linear)"/>
<defs>
<linearGradient id="paint0_linear" x1="24.8382" y1="49.2188" x2="24.8382" y2="0.78125" gradientUnits="userSpaceOnUse">
<stop stop-color="#9F2FFF"/>
<stop offset="1" stop-color="#0BB1D3"/>
</linearGradient>
</defs>
</svg>
