<svg width="30" height="30" viewBox="0 0 30 30" fill="none" xmlns="http://www.w3.org/2000/svg">
<g clip-path="url(#clip0)">
<path d="M7.81216 23.164C5.811 23.164 4.03094 21.8826 3.38456 19.9751L3.34085 19.8314C3.18841 19.3262 3.12455 18.9014 3.12455 18.4763V9.95349L0.092017 20.0763C-0.298007 21.5652 0.590763 23.1088 2.08196 23.5201L21.4113 28.6966C21.6525 28.7591 21.8938 28.7891 22.1314 28.7891C23.3763 28.7891 24.5139 27.9628 24.8327 26.7451L25.9588 23.164H7.81216Z" fill="#ECEFF1"/>
<path d="M30.0001 4.10084V18.4763C30.0001 20.0264 28.7375 21.2889 27.1875 21.2889H7.81196C7.68699 21.2889 7.56201 21.2763 7.4494 21.2637C6.13696 21.1015 5.112 20.0264 5.01198 18.7013C4.99939 18.6263 4.99939 18.5512 4.99939 18.4763V4.10084C4.99939 2.55081 6.26193 1.28827 7.81196 1.28827H27.1875C28.7375 1.28827 30.0001 2.55081 30.0001 4.10084V4.10084Z" fill="#ECEFF1"/>
<path d="M13.7494 7.53847C13.7494 8.91912 12.6302 10.0386 11.2495 10.0386C9.86865 10.0386 8.74939 8.91912 8.74939 7.53847C8.74939 6.15782 9.86865 5.03833 11.2495 5.03833C12.6302 5.03833 13.7494 6.15782 13.7494 7.53847Z" fill="#FFC107"/>
<path d="M30 14.9636V18.4764C30 20.0264 28.7375 21.2889 27.1874 21.2889H7.8119C7.68693 21.2889 7.56195 21.2763 7.44934 21.2637L20.3247 8.3886C21.1748 7.53852 22.5747 7.53852 23.4248 8.3886L30 14.9636Z" fill="#388E3C"/>
<path d="M22.5747 21.2889H7.81194C7.68697 21.2889 7.562 21.2763 7.44939 21.2637C6.13694 21.1015 5.11199 20.0264 5.01196 18.7013L10.9495 12.7636C11.7996 11.9137 13.1995 11.9137 14.0496 12.7636L22.5747 21.2889Z" fill="#4CAF50"/>
</g>
<defs>
<clipPath id="clip0">
<rect width="30" height="30" fill="white"/>
</clipPath>
</defs>
</svg>
