<svg width="12" height="30" viewBox="0 0 12 30" fill="none" xmlns="http://www.w3.org/2000/svg">
<path d="M5.625 10.7812C7.95703 10.7812 9.84375 12.668 9.84375 15C9.84375 17.332 7.95703 19.2188 5.625 19.2188C3.29297 19.2188 1.40625 17.332 1.40625 15C1.40625 12.668 3.29297 10.7812 5.625 10.7812ZM1.40625 4.6875C1.40625 7.01953 3.29297 8.90625 5.625 8.90625C7.95703 8.90625 9.84375 7.01953 9.84375 4.6875C9.84375 2.35547 7.95703 0.46875 5.625 0.46875C3.29297 0.46875 1.40625 2.35547 1.40625 4.6875ZM1.40625 25.3125C1.40625 27.6445 3.29297 29.5312 5.625 29.5312C7.95703 29.5312 9.84375 27.6445 9.84375 25.3125C9.84375 22.9805 7.95703 21.0938 5.625 21.0938C3.29297 21.0938 1.40625 22.9805 1.40625 25.3125Z" fill="#626262"/>
</svg>
