<svg width="50" height="50" viewBox="0 0 50 50" fill="none" xmlns="http://www.w3.org/2000/svg">
<g clip-path="url(#clip0)">
<path d="M4.51096 25.2264H2.59004C1.15956 25.2264 0 26.386 0 27.8164V40.1729C0 41.6032 1.15956 42.7629 2.59004 42.7629H4.51096C6.12221 42.7629 7.59233 41.844 8.29811 40.3956L10.8644 35.1292C11.2134 34.4131 11.2134 33.5761 10.8644 32.86L8.29811 27.5937C7.59233 26.1454 6.12221 25.2264 4.51096 25.2264V25.2264Z" fill="url(#paint0_linear)"/>
<path d="M32.7276 18.3336H26.4246V13.2665C26.4246 7.74723 30.9149 3.25699 36.4341 3.25699H38.8086V9.55998H36.4341C34.3903 9.55998 32.7275 11.2227 32.7275 13.2666V18.3336H32.7276Z" fill="url(#paint1_linear)"/>
<path d="M36.8195 22.9939H22.3324V18.392C22.3324 16.6787 23.7213 15.2898 25.4346 15.2898H33.7173C35.4306 15.2898 36.8195 16.6787 36.8195 18.392V22.9939Z" fill="url(#paint2_linear)"/>
<path d="M35.8744 20.0684C43.5646 19.9581 49.8882 26.1028 49.9985 33.7929C50.1089 41.4831 43.9642 47.8067 36.274 47.917C23.9195 48.0942 13.4111 43.9177 9.62524 40.239C6.33928 37.046 6.26388 31.7937 9.45691 28.5078C13.1357 24.7219 23.52 20.2457 35.8744 20.0684V20.0684Z" fill="url(#paint3_linear)"/>
<path d="M35.8746 20.0684C23.5201 20.2457 13.1358 24.7219 9.45715 28.5078C7.25834 30.7706 6.60974 33.9658 7.49191 36.779H49.7204C49.9162 35.8153 50.0133 34.8164 49.9987 33.793C49.8883 26.1028 43.5647 19.9581 35.8746 20.0684V20.0684Z" fill="url(#paint4_linear)"/>
<path d="M19.8871 41.1716C19.9788 40.3997 19.502 39.668 18.7544 39.455C16.7872 38.8947 15.2325 37.3567 14.6476 35.3998C14.4299 34.6711 13.7095 34.2117 12.9535 34.2947H12.9534C11.9705 34.4024 11.3109 35.3733 11.5956 36.3203C12.4939 39.3078 14.8738 41.6602 17.8779 42.5195C18.8168 42.7881 19.7717 42.1415 19.8871 41.1716V41.1716Z" fill="#C2C8CF"/>
<path d="M40.7656 2.07748H39.9311C38.5057 2.07748 37.3501 3.23296 37.3501 4.65846V8.15826C37.3501 9.58366 38.5057 10.7392 39.9311 10.7392H40.7656C41.8078 10.7392 42.6526 9.89442 42.6526 8.85219V3.96454C42.6526 2.9224 41.8077 2.07748 40.7656 2.07748V2.07748Z" fill="url(#paint5_linear)"/>
<path d="M14.6476 35.3998C14.4299 34.6711 13.7095 34.2117 12.9535 34.2947H12.9534C11.9705 34.4024 11.3109 35.3733 11.5956 36.3203C11.6421 36.4751 11.6936 36.6276 11.748 36.7788H15.2587C15.0002 36.3512 14.7936 35.8885 14.6476 35.3998V35.3998Z" fill="#EFC534"/>
<path d="M20.4035 39.6849C23.7219 39.6849 26.412 36.9948 26.412 33.6763C26.412 30.3579 23.7219 27.6678 20.4035 27.6678C17.085 27.6678 14.3949 30.3579 14.3949 33.6763C14.3949 36.9948 17.085 39.6849 20.4035 39.6849Z" fill="url(#paint6_linear)"/>
<path d="M20.4034 37.0171C22.2484 37.0171 23.7441 35.5214 23.7441 33.6764C23.7441 31.8314 22.2484 30.3357 20.4034 30.3357C18.5583 30.3357 17.0626 31.8314 17.0626 33.6764C17.0626 35.5214 18.5583 37.0171 20.4034 37.0171Z" fill="url(#paint7_linear)"/>
<path d="M36.4578 39.6849C39.7762 39.6849 42.4664 36.9948 42.4664 33.6763C42.4664 30.3579 39.7762 27.6678 36.4578 27.6678C33.1394 27.6678 30.4492 30.3579 30.4492 33.6763C30.4492 36.9948 33.1394 39.6849 36.4578 39.6849Z" fill="url(#paint8_linear)"/>
<path d="M36.4578 37.0171C38.3028 37.0171 39.7985 35.5214 39.7985 33.6764C39.7985 31.8314 38.3028 30.3357 36.4578 30.3357C34.6128 30.3357 33.1171 31.8314 33.1171 33.6764C33.1171 35.5214 34.6128 37.0171 36.4578 37.0171Z" fill="url(#paint9_linear)"/>
<path d="M41.338 25.3622C41.1791 25.3622 41.0179 25.324 40.868 25.2437C40.4767 25.0337 40.0665 24.8473 39.6491 24.6894C39.1346 24.4949 38.8751 23.9201 39.0696 23.4055C39.264 22.891 39.8388 22.6314 40.3535 22.826C40.8521 23.0145 41.342 23.2373 41.8099 23.4882C42.2946 23.7483 42.4767 24.352 42.2167 24.8368C42.0369 25.1718 41.6932 25.3622 41.338 25.3622V25.3622Z" fill="#FFFDE3"/>
<path d="M46.4404 31.3319C46.0258 31.3319 45.6387 31.071 45.4976 30.6565C45.1034 29.4988 44.4973 28.4392 43.6959 27.5073C43.3371 27.0903 43.3845 26.4614 43.8015 26.1028C44.2185 25.744 44.8474 25.7913 45.2061 26.2084C46.1744 27.3341 46.9068 28.6148 47.3834 30.0147C47.5606 30.5354 47.2822 31.1013 46.7614 31.2786C46.6551 31.3147 46.5468 31.3319 46.4404 31.3319V31.3319Z" fill="#FFFDE3"/>
<path d="M35.9414 41.1716C36.0331 40.3997 35.5563 39.668 34.8087 39.455C32.8415 38.8947 31.2868 37.3567 30.7019 35.3998C30.4842 34.6711 29.7638 34.2117 29.0078 34.2947H29.0077C28.0249 34.4024 27.3652 35.3733 27.65 36.3203C28.5483 39.3078 30.9281 41.6602 33.9322 42.5195C34.8712 42.7881 35.826 42.1415 35.9414 41.1716V41.1716Z" fill="#C2C8CF"/>
<path d="M30.702 35.3998C30.4842 34.6711 29.7638 34.2117 29.0078 34.2947H29.0077C28.0249 34.4024 27.3652 35.3733 27.65 36.3203C27.6965 36.4751 27.748 36.6276 27.8023 36.7788H31.313C31.0545 36.3512 30.848 35.8885 30.702 35.3998V35.3998Z" fill="#EFC534"/>
</g>
<defs>
<linearGradient id="paint0_linear" x1="8.35209" y1="33.9947" x2="-2.28496" y2="33.9947" gradientUnits="userSpaceOnUse">
<stop stop-color="#AC6C58"/>
<stop offset="1" stop-color="#DA9B8C"/>
</linearGradient>
<linearGradient id="paint1_linear" x1="32.6166" y1="17.6797" x2="32.6166" y2="2.2301" gradientUnits="userSpaceOnUse">
<stop stop-color="#74D2E8"/>
<stop offset="1" stop-color="#BAEAF5"/>
</linearGradient>
<linearGradient id="paint2_linear" x1="22.3325" y1="19.1419" x2="39.0361" y2="19.1419" gradientUnits="userSpaceOnUse">
<stop stop-color="#AC6C58"/>
<stop offset="1" stop-color="#DA9B8C"/>
</linearGradient>
<linearGradient id="paint3_linear" x1="8.48888" y1="33.9947" x2="54.6575" y2="33.9947" gradientUnits="userSpaceOnUse">
<stop stop-color="#D4DBDB"/>
<stop offset="1" stop-color="#F3F3F3"/>
</linearGradient>
<linearGradient id="paint4_linear" x1="28.5556" y1="36.7789" x2="28.5556" y2="14.1053" gradientUnits="userSpaceOnUse">
<stop stop-color="#F4D952"/>
<stop offset="1" stop-color="#F9EDAF"/>
</linearGradient>
<linearGradient id="paint5_linear" x1="40.0013" y1="10.534" x2="40.0013" y2="2.78824" gradientUnits="userSpaceOnUse">
<stop stop-color="#4E5660"/>
<stop offset="1" stop-color="#64768D"/>
</linearGradient>
<linearGradient id="paint6_linear" x1="20.4035" y1="40.8462" x2="20.4035" y2="27.6479" gradientUnits="userSpaceOnUse">
<stop stop-color="#4E5660"/>
<stop offset="1" stop-color="#64768D"/>
</linearGradient>
<linearGradient id="paint7_linear" x1="16.4536" y1="33.6764" x2="24.3468" y2="33.6764" gradientUnits="userSpaceOnUse">
<stop stop-color="#74D2E8"/>
<stop offset="1" stop-color="#BAEAF5"/>
</linearGradient>
<linearGradient id="paint8_linear" x1="36.4578" y1="40.8462" x2="36.4578" y2="27.6479" gradientUnits="userSpaceOnUse">
<stop stop-color="#4E5660"/>
<stop offset="1" stop-color="#64768D"/>
</linearGradient>
<linearGradient id="paint9_linear" x1="32.508" y1="33.6764" x2="40.4012" y2="33.6764" gradientUnits="userSpaceOnUse">
<stop stop-color="#74D2E8"/>
<stop offset="1" stop-color="#BAEAF5"/>
</linearGradient>
<clipPath id="clip0">
<rect width="50" height="50" fill="white"/>
</clipPath>
</defs>
</svg>
